# xmcd
#
# Track frame offsets:
#  150
#  13989
#  26191
#  44500
#  63216
#  80373
#  107527
#  127152
#  155047
#  171420
#  191014
#  214290
#  238107
#  281314
#
# Disc length: 4004 seconds
#
# Revision: 0
# Processed by: cddbd v1.5.2PL0 Copyright (c) Steve Scherf et al.
# Submitted via: AltoMP3_Maker 3.0
#
DISCID=ce0fa20e
DTITLE=Lost Weekend - Swingin' Out West - Live
DYEAR=1900
DGENRE=
TTITLE0=Twinkle Star
TTITLE1=Swingin' Out West
TTITLE2=Time Changes Everything
TTITLE3=Carry Me Back to the Lone Prairie
TTITLE4=My Window Faces the South
TTITLE5=Rose Room
TTITLE6=Yearning Just for You
TTITLE7=Trouble in Mind
TTITLE8=Won't You Ride in My Little Red Wagon
TTITLE9=Blues for Dixie
TTITLE10=Girls Go Crazy 'bout the Way I Walk
TTITLE11=Harbor Lights
TTITLE12=Caravan
TTITLE13=Redwing
EXTD=
EXTT0=
EXTT1=
EXTT2=
EXTT3=
EXTT4=
EXTT5=
EXTT6=
EXTT7=
EXTT8=
EXTT9=
EXTT10=
EXTT11=
EXTT12=
EXTT13=
PLAYORDER=
